<?xml version="1.0" standalone="no"?>
<!DOCTYPE svg PUBLIC "-//W3C//DTD SVG 20010904//EN"
 "http://www.w3.org/TR/2001/REC-SVG-20010904/DTD/svg10.dtd">
<svg version="1.0" xmlns="http://www.w3.org/2000/svg"
 width="1536.000000pt" height="1536.000000pt" viewBox="0 0 1536.000000 1536.000000"
 preserveAspectRatio="xMidYMid meet">
<metadata>
Created by potrace 1.14, written by Peter Selinger 2001-2017
</metadata>
<g transform="translate(0.000000,1536.000000) scale(0.100000,-0.100000)"
fill="#000000" stroke="none">
<path d="M2689 15356 c-2 -2 -40 -6 -84 -10 -72 -5 -156 -17 -240 -33 -16 -3
-39 -7 -51 -8 -33 -5 -222 -54 -304 -80 -650 -203 -1220 -648 -1582 -1235 -60
-98 -154 -278 -205 -395 -23 -52 -120 -336 -126 -370 -2 -11 -7 -27 -10 -35
-7 -19 -45 -210 -53 -265 -3 -22 -7 -51 -10 -65 -2 -14 -7 -59 -11 -100 -10
-97 -10 -10037 -1 -10150 4 -47 10 -94 12 -105 2 -11 7 -42 10 -68 19 -136
102 -469 126 -502 4 -5 10 -23 14 -40 10 -39 78 -200 128 -300 183 -365 458
-706 773 -958 211 -169 446 -309 705 -420 129 -56 463 -154 585 -171 22 -4 54
-9 70 -12 32 -6 53 -9 155 -21 83 -10 10072 -11 10165 0 111 12 138 15 175 22
19 4 44 8 55 9 11 2 34 6 50 10 17 3 39 8 50 10 83 17 238 59 329 90 154 52
442 187 551 257 102 65 201 134 250 171 28 21 57 44 66 51 157 120 360 333
532 557 13 17 86 126 102 152 140 230 216 390 292 613 51 147 102 356 119 480
3 28 7 52 9 55 17 28 20 883 20 5190 0 4426 -2 5093 -19 5175 -2 11 -7 42 -10
68 -19 136 -102 469 -126 502 -4 6 -10 23 -14 40 -10 39 -78 200 -128 300
-183 365 -458 706 -773 958 -211 169 -446 309 -705 420 -133 57 -470 156 -590
172 -25 3 -52 8 -60 10 -8 2 -37 7 -65 10 -27 4 -63 9 -80 12 -33 7 -10089 15
-10096 9z"/>
</g>
</svg>
