<svg width="385" height="333" viewBox="0 0 385 333" fill="none" xmlns="http://www.w3.org/2000/svg">
<path fill-rule="evenodd" clip-rule="evenodd" d="M0.000350952 154.181V49.3365C17.3334 54.2179 36.0675 56.886 55.6192 56.886C79.8513 56.886 102.83 52.7899 123.437 45.4561C126.673 48.7042 130.161 51.7993 133.88 54.7248C92.3693 75.0736 60.5796 105.982 45.0153 142.485C30.8274 147.639 15.7483 151.597 0.000350952 154.181Z" fill="#FFB862"/>
<path fill-rule="evenodd" clip-rule="evenodd" d="M98.0499 0L162.907 0C162.907 9.43413 161.821 18.6716 159.742 27.6492C148.807 34.7589 136.61 40.7691 123.442 45.456C110.453 32.4198 101.511 16.904 98.0499 0Z" fill="#ED6B63"/>
<path fill-rule="evenodd" clip-rule="evenodd" d="M133.879 54.7255C140.35 51.5529 147.058 48.6377 153.979 45.9971C151.659 51.8167 148.911 57.4941 145.763 63.0058C141.584 60.4299 137.616 57.6636 133.879 54.7255Z" fill="#ED6B63"/>
<path fill-rule="evenodd" clip-rule="evenodd" d="M0.00310516 332.825L0.00310516 154.18C15.7511 151.596 30.8302 147.638 45.0181 142.484C12.4995 228 65.4995 263.5 0.00310516 332.825Z" fill="#5CDEF1"/>
<path fill-rule="evenodd" clip-rule="evenodd" d="M123.44 45.4552C136.608 40.7684 148.805 34.7582 159.741 27.6484C158.293 33.8997 156.362 40.023 153.982 45.9956C147.061 48.6362 140.354 51.5514 133.882 54.724C130.164 51.7984 126.676 48.7033 123.44 45.4552Z" fill="#5CDEF1"/>
<path fill-rule="evenodd" clip-rule="evenodd" d="M-0.000244141 49.3364V0L98.0449 0C101.506 16.904 110.448 32.4196 123.437 45.4559C102.83 52.7897 79.8508 56.8857 55.6187 56.8857C36.067 56.8857 17.3328 54.2178 -0.000244141 49.3364Z" fill="#006FE6"/>
<path fill-rule="evenodd" clip-rule="evenodd" d="M159.74 27.6492C161.818 18.6716 162.904 9.43392 162.904 0L191.274 0C182.612 10.3827 171.967 19.7017 159.74 27.6492Z" fill="#006FE6"/>
<path fill-rule="evenodd" clip-rule="evenodd" d="M45.0207 142.486C60.5851 105.983 92.3748 75.0746 133.885 54.7256C137.623 57.6637 141.591 60.43 145.77 63.0061C125.848 97.878 89.8931 126.181 45.0207 142.486Z" fill="#2E449F"/>
<path fill-rule="evenodd" clip-rule="evenodd" d="M145.769 63.0051C148.917 57.4934 151.665 51.816 153.984 45.9964C182.996 34.9266 215.726 28.6963 250.365 28.6963C266.078 28.6963 288.985 0.582974 303.743 3.01838L359.607 3.01811C336.842 51.8116 301.252 85.4168 228.922 85.4168C197.428 85.4168 168.504 77.0232 145.769 63.0051Z" fill="#78BC61"/>
<path fill-rule="evenodd" clip-rule="evenodd" d="M153.981 45.9978C156.361 40.0252 158.292 33.9018 159.74 27.6508C171.967 19.7033 182.612 10.3844 191.274 0.00146484L366.849 0.00146484L385 0.00146484C342.966 49.6108 289.467 28.6976 250.362 28.6976C215.723 28.6976 182.993 34.928 153.981 45.9978Z" fill="#004793"/>
</svg>
