<svg width="30" height="32" viewBox="0 0 30 32" fill="none" xmlns="http://www.w3.org/2000/svg">
<path fill-rule="evenodd" clip-rule="evenodd" d="M4.33325 0C2.1241 0 0.333252 1.79086 0.333252 4V24C0.333252 26.2091 2.1241 28 4.33325 28H21.6666L26.475 31.6065C26.8079 31.8537 27.2201 32 27.6666 32C28.7711 32 29.6666 31.1046 29.6666 30V4C29.6666 1.79086 27.8757 0 25.6666 0H4.33325ZM18.9999 8C18.9999 6.52724 20.1938 5.33333 21.6666 5.33333C23.1393 5.33333 24.3333 6.52724 24.3333 8V21.3333C24.3333 22.8061 23.1393 24 21.6666 24C20.1938 24 18.9999 22.8061 18.9999 21.3333V8ZM14.9999 13.3333C13.5272 13.3333 12.3333 14.5272 12.3333 16L12.3333 21.3333C12.3333 22.8061 13.5272 24 14.9999 24C16.4727 24 17.6666 22.8061 17.6666 21.3333V16C17.6666 14.5272 16.4727 13.3333 14.9999 13.3333ZM5.66658 10.6667C5.66658 9.19391 6.86049 8 8.33325 8C9.80601 8 10.9999 9.19391 10.9999 10.6667L10.9999 21.3333C10.9999 22.8061 9.80601 24 8.33325 24C6.86049 24 5.66658 22.8061 5.66659 21.3333L5.66658 10.6667Z" fill="#8BBDF3"/>
</svg>
