<svg width="30" height="32" viewBox="0 0 30 32" fill="none" xmlns="http://www.w3.org/2000/svg">
<path fill-rule="evenodd" clip-rule="evenodd" d="M4.33325 0C2.1241 0 0.333252 1.79086 0.333252 4V24C0.333252 26.2091 2.1241 28 4.33325 28H21.6666L26.475 31.6065C26.8079 31.8537 27.2201 32 27.6666 32C28.7711 32 29.6666 31.1046 29.6666 30V4C29.6666 1.79086 27.8757 0 25.6666 0H4.33325ZM8.99992 5.33333C7.15897 5.33333 5.66659 6.82572 5.66659 8.66667L5.66658 20.6667C5.66658 22.5076 7.15897 24 8.99992 24H20.9999C22.8409 24 24.3333 22.5076 24.3333 20.6667V8.66667C24.3333 6.82572 22.8409 5.33333 20.9999 5.33333H8.99992ZM17.6666 17.3333H12.3333L12.3333 12H17.6666V17.3333Z" fill="#FFA940"/>
</svg>
