<svg width="30" height="32" viewBox="0 0 30 32" fill="none" xmlns="http://www.w3.org/2000/svg">
<path fill-rule="evenodd" clip-rule="evenodd" d="M0.333252 4C0.333252 1.79086 2.1241 0 4.33325 0H25.6666C27.8757 0 29.6666 1.79086 29.6666 4V30C29.6666 31.1046 28.7711 32 27.6666 32C27.2201 32 26.8079 31.8537 26.475 31.6065L21.6666 28H4.33325C2.1241 28 0.333252 26.2091 0.333252 24V4ZM4.82293 14.5857C4.73619 14.5408 4.65217 14.4895 4.57163 14.4322C3.98517 14.0331 3.66346 13.3594 3.66661 12.6667C3.66346 11.974 3.98518 11.3002 4.57164 10.9012C4.65218 10.8438 4.73619 10.7925 4.82293 10.7476L11.2397 6.94222C12.217 6.36259 13.4794 6.72889 14.0509 7.74565C14.6223 8.7624 14.3 10.0685 13.3226 10.6481L9.91886 12.6667L13.1392 14.5764C13.3315 14.669 13.5077 14.7917 13.6624 14.9387C14.0992 15.3432 14.3354 15.9225 14.3332 16.516L14.3332 16.5238C14.3332 17.7073 13.4149 18.6667 12.282 18.6667L12.2624 18.6666C11.9138 18.6702 11.5613 18.5819 11.2397 18.3911L4.82293 14.5857ZM25.4282 13.5678C25.3477 13.5105 25.2636 13.4592 25.1769 13.4143L18.7602 9.60889C18.4385 9.41814 18.086 9.32984 17.7375 9.33344L17.7179 9.33334C16.585 9.33334 15.6666 10.2927 15.6666 11.4762L15.6666 11.484C15.6644 12.0775 15.9006 12.6568 16.3375 13.0613C16.4921 13.2083 16.6684 13.331 16.8607 13.4236L20.081 15.3333L16.6772 17.3519C15.6998 17.9315 15.3775 19.2376 15.949 20.2544C16.5205 21.2711 17.7828 21.6374 18.7602 21.0578L25.1769 17.2524C25.2636 17.2075 25.3477 17.1562 25.4282 17.0988C26.0147 16.6998 26.3364 16.026 26.3332 15.3333C26.3364 14.6406 26.0147 13.9669 25.4282 13.5678Z" fill="#313F4E"/>
</svg>
