<svg width="30" height="32" viewBox="0 0 30 32" fill="none" xmlns="http://www.w3.org/2000/svg">
<path fill-rule="evenodd" clip-rule="evenodd" d="M4.3335 0C2.12435 0 0.333496 1.79086 0.333496 4V24C0.333496 26.2091 2.12435 28 4.3335 28H21.6668L26.4753 31.6065C26.8081 31.8537 27.2204 32 27.6668 32C28.7713 32 29.6668 31.1046 29.6668 30V4C29.6668 1.79086 27.876 0 25.6668 0H4.3335ZM9.91134 5.35562C10.4948 4.77221 11.286 4.44444 12.1111 4.44444L12.108 4.44496C12.9331 4.44496 13.7244 4.77272 14.3078 5.35614C14.8912 5.93956 15.219 6.73084 15.219 7.55592V10.8351L15.8629 9.99906C15.8857 9.96951 15.909 9.93996 15.9329 9.91144C16.1925 9.59585 16.5118 9.33452 16.8725 9.14237C17.2332 8.95022 17.6282 8.83103 18.035 8.79159C18.4418 8.75215 18.8523 8.79325 19.2432 8.91254C19.6341 9.03183 19.9976 9.22696 20.3131 9.48679C21.6171 10.5627 21.7866 12.5024 20.7626 13.8421L19.8812 14.9963C19.6749 15.2659 19.5631 15.596 19.5631 15.9356C19.5631 16.2751 19.6749 16.6052 19.8812 16.8748L20.8046 18.0839C21.0532 18.4083 21.2355 18.7784 21.3411 19.1732C21.4466 19.568 21.4733 19.9798 21.4197 20.3849C21.366 20.79 21.2331 21.1806 21.0284 21.5344C20.8238 21.8881 20.5515 22.1981 20.227 22.4465L20.198 22.4673C20.1943 22.4697 20.1908 22.4725 20.1876 22.4756C19.8623 22.7232 19.4914 22.9042 19.0961 23.0084C18.7008 23.1126 18.2889 23.1378 17.8838 23.0827C17.4787 23.0276 17.0885 22.8931 16.7354 22.6871C16.3823 22.481 16.0733 22.2074 15.826 21.8819L15.081 20.9066C15.1722 20.611 15.2185 20.3034 15.2184 19.9941V10.844L12.7406 14.0889C12.328 14.6287 12.1044 15.2893 12.1044 15.9687C12.1044 16.6482 12.328 17.3087 12.7406 17.8485L13.3985 18.7092L12.1085 19.9992H14.3899L15.0836 20.9118C14.8641 21.6229 14.3969 22.2317 13.7669 22.6278C13.1368 23.0239 12.3856 23.181 11.6496 23.0706C10.9136 22.9602 10.2416 22.5896 9.75549 22.0261C9.26938 21.4626 9.00139 20.7435 9.00016 19.9992V7.5554C9.00016 6.73033 9.32792 5.93904 9.91134 5.35562Z" fill="#006FE6"/>
</svg>
