<svg width="32" height="32" viewBox="0 0 32 32" fill="none" xmlns="http://www.w3.org/2000/svg">
<path d="M29.3702 6.11345C29.3334 5.70187 29.2918 5.29275 29.2477 4.88852C29.212 4.5483 29.0644 4.22953 28.8281 3.98215C28.5918 3.73477 28.2802 3.57276 27.9419 3.5215C27.5377 3.46026 27.131 3.40391 26.717 3.34756C26.1568 3.27407 25.5852 3.20629 25.0021 3.14423C24.7767 3.11973 24.5513 3.09278 24.3235 3.07073C23.5493 2.98743 22.7556 2.91149 21.9324 2.86494C20.0607 2.7351 18.1376 2.6665 16.1851 2.6665C14.2325 2.6665 12.3119 2.7351 10.4377 2.86494C9.62681 2.92129 8.82326 2.98743 8.03196 3.06828C7.80412 3.09033 7.57874 3.11728 7.3509 3.14178C6.78008 3.20302 6.21172 3.27162 5.6507 3.34511C5.24157 3.40146 4.83245 3.45781 4.42577 3.51905C4.08832 3.5716 3.77765 3.73407 3.54199 3.98125C3.30632 4.22844 3.15885 4.5465 3.12245 4.88607C3.0808 5.29275 3.03916 5.69942 3.00241 6.111C2.82112 8.05618 2.70842 10.07 2.66678 12.1107C2.66573 12.1967 2.69264 12.2807 2.74345 12.35C2.79426 12.4194 2.86622 12.4704 2.94851 12.4953C3.44335 12.6405 3.95663 12.7131 4.47232 12.7109C4.64381 12.7109 4.81285 12.7109 4.97944 12.6864C4.97944 13.0808 4.97944 13.4777 4.97944 13.8746C4.97944 14.2715 4.97944 14.6365 4.97944 15.0162C5.0122 17.7516 5.18556 20.4836 5.49881 23.2012C5.53816 23.5482 5.69406 23.8717 5.94103 24.1186C6.188 24.3656 6.51144 24.5215 6.85848 24.5609C9.95458 24.9162 13.0687 25.092 16.1851 25.0876C17.0695 25.0876 17.9882 25.0729 18.924 25.041C20.5409 26.4668 22.126 27.7971 23.6424 28.9975C23.9149 29.214 24.2524 29.3323 24.6003 29.3332C24.786 29.333 24.9701 29.2998 25.1442 29.2352C25.3937 29.1438 25.6152 28.9892 25.787 28.7865C25.9588 28.5838 26.075 28.34 26.1241 28.0788C26.4059 26.6089 26.6435 25.0802 26.8346 23.5099C27.1704 20.6905 27.3561 17.8553 27.3907 15.0162C27.3907 14.6365 27.3907 14.2568 27.3907 13.8746C27.3907 13.4924 27.3907 13.0808 27.3907 12.6864C27.5573 12.7011 27.7263 12.7109 27.8978 12.7109C28.4139 12.7106 28.9271 12.6355 29.4216 12.488C29.5039 12.463 29.5759 12.412 29.6267 12.3427C29.6775 12.2733 29.7044 12.1893 29.7034 12.1033C29.6642 10.07 29.5515 8.05618 29.3702 6.11345ZM7.73553 5.43239C8.2255 5.38176 8.71547 5.3344 9.20544 5.2903C11.4593 5.09431 13.7989 4.99142 16.1875 4.99142C18.6374 4.99142 20.9696 5.09676 23.1721 5.2903C23.662 5.3344 24.152 5.38094 24.642 5.43239C25.4504 5.51813 26.2393 5.61858 27.0061 5.72882C27.2315 7.97534 27.3662 10.3101 27.3981 12.6938C27.3025 12.6938 27.2094 12.6717 27.1139 12.657L27.0281 12.6423L26.8272 12.6031L26.7366 12.5835L26.5235 12.5296L26.4573 12.5125C26.3642 12.4855 26.2736 12.4561 26.1805 12.4243H26.1584C26.0751 12.3949 25.9918 12.363 25.9134 12.3287L25.8498 12.3018C25.7787 12.2724 25.7077 12.2405 25.6391 12.2062L25.5827 12.1793C25.4045 12.0897 25.2312 11.9907 25.0633 11.8829C24.9727 11.8216 24.8821 11.7604 24.7939 11.6942L24.7596 11.6697C24.6689 11.6011 24.5807 11.5276 24.495 11.4541C24.4166 11.3831 24.3382 11.312 24.25 11.2361C24.2304 11.2189 24.2132 11.1993 24.1961 11.1822C24.1177 11.1038 24.0442 11.0254 23.9707 10.9372C23.8309 10.7755 23.6589 10.6447 23.4657 10.5532C23.2725 10.4617 23.0624 10.4114 22.8487 10.4056C22.7042 10.4014 22.5598 10.4179 22.42 10.4546C22.143 10.5222 21.8903 10.6655 21.69 10.8683C21.4897 11.0712 21.3497 11.3258 21.2857 11.6036C21.0264 12.7619 20.3802 13.7973 19.4538 14.5393C18.5273 15.2813 17.3757 15.6856 16.1887 15.6856C15.0018 15.6856 13.8502 15.2813 12.9237 14.5393C11.9973 13.7973 11.3511 12.7619 11.0918 11.6036C11.0299 11.3243 10.8915 11.0677 10.692 10.8626C10.4926 10.6575 10.2399 10.512 9.96244 10.4423C9.83696 10.4091 9.70763 10.3926 9.57782 10.3933C9.35709 10.3934 9.13897 10.441 8.9382 10.5327C8.73743 10.6244 8.55871 10.7582 8.41414 10.925C8.34064 11.0083 8.2647 11.0867 8.18875 11.1699L8.13485 11.2238C8.05891 11.2998 7.98051 11.3733 7.88987 11.4419C7.80412 11.5154 7.71348 11.5889 7.62283 11.6575L7.59098 11.682C7.50279 11.7481 7.41215 11.8118 7.31905 11.8706C7.1518 11.9794 6.97838 12.0783 6.79968 12.167L6.74334 12.194C6.67474 12.2283 6.60369 12.2601 6.53265 12.2895L6.46895 12.3165C6.38811 12.3508 6.30481 12.3826 6.22397 12.412H6.20192C6.10882 12.4447 6.01573 12.4741 5.92263 12.5002L5.85894 12.5174L5.6458 12.5713L5.55516 12.5909L5.35182 12.6301L5.26852 12.6448C5.17298 12.6595 5.07988 12.6717 4.98434 12.6815C5.01619 10.2954 5.14848 7.96309 5.37387 5.71412C6.14639 5.61123 6.93361 5.51732 7.73553 5.43239ZM24.5293 23.2453C24.3994 24.311 24.2475 25.3595 24.0736 26.3786C22.8291 25.3571 21.5307 24.262 20.2322 23.1032C19.95 22.8528 19.5855 22.715 19.2082 22.7161H19.1494C18.1376 22.7529 17.1405 22.77 16.1851 22.77C13.3643 22.7742 10.5453 22.6262 7.74043 22.3266C7.46244 19.7224 7.31526 17.106 7.29945 14.4871L7.3558 14.4626C7.50034 14.4038 7.64488 14.3401 7.78452 14.2715L7.85067 14.2372C7.99766 14.1637 8.1422 14.082 8.28429 13.9922L8.32839 13.9677C8.47538 13.8795 8.62237 13.7864 8.76446 13.6884L8.79141 13.6908C8.9384 13.588 9.08295 13.4802 9.22504 13.365C9.80176 14.7388 10.7698 15.9126 12.0087 16.7402C13.2476 17.5679 14.7025 18.0129 16.1924 18.0197C17.6827 18.0133 19.1382 17.5686 20.3776 16.7409C21.6169 15.9132 22.5854 14.7392 23.1623 13.365C23.3019 13.4802 23.4464 13.588 23.5959 13.6908L23.6155 13.7055C23.7576 13.8035 23.9021 13.8966 24.0516 13.9848L24.0957 14.0093C24.2353 14.0926 24.3798 14.171 24.5268 14.2543L24.5954 14.2886C24.7343 14.3572 24.8763 14.4209 25.0217 14.4797L25.078 14.5042C25.0593 17.4259 24.8761 20.3442 24.5293 23.2453Z" fill="#006FE6"/>
</svg>
