<svg width="152" height="40" viewBox="0 0 152 40" fill="none" xmlns="http://www.w3.org/2000/svg">
<path fill-rule="evenodd" clip-rule="evenodd" d="M6.66663 0C3.90519 0 1.66663 2.23858 1.66663 5V30C1.66663 32.7614 3.90519 35 6.66663 35H28.3333L34.3438 39.5081C34.7599 39.8172 35.2752 40 35.8333 40C37.2139 40 38.3333 38.8807 38.3333 37.5V5C38.3333 2.23858 36.0947 0 33.3333 0H6.66663ZM13.6389 6.69453C14.3682 5.96526 15.3573 5.55556 16.3887 5.55556L16.3848 5.5562C17.4161 5.5562 18.4052 5.9659 19.1345 6.69518C19.8638 7.42445 20.2735 8.41356 20.2735 9.4449V13.5439L21.0783 12.4988C21.1068 12.4619 21.136 12.4249 21.1658 12.3893C21.4904 11.9948 21.8895 11.6681 22.3404 11.428C22.7913 11.1878 23.285 11.0388 23.7935 10.9895C24.302 10.9402 24.8152 10.9916 25.3038 11.1407C25.7924 11.2898 26.2468 11.5337 26.6411 11.8585C28.2711 13.2033 28.4831 15.6279 27.203 17.3027L26.1012 18.7454C25.8433 19.0824 25.7036 19.495 25.7036 19.9194C25.7036 20.3439 25.8433 20.7564 26.1012 21.0935L27.2555 22.6049C27.5663 23.0103 27.7942 23.473 27.9261 23.9665C28.058 24.46 28.0914 24.9747 28.0243 25.4811C27.9573 25.9875 27.7911 26.4758 27.5353 26.918C27.2795 27.3601 26.9391 27.7476 26.5335 28.0582L26.4972 28.0841C26.4926 28.0872 26.4883 28.0907 26.4843 28.0945C26.0777 28.404 25.614 28.6303 25.1199 28.7605C24.6258 28.8907 24.1108 28.9223 23.6045 28.8534C23.0982 28.7844 22.6104 28.6164 22.169 28.3589C21.7277 28.1013 21.3414 27.7593 21.0323 27.3524L20.101 26.1333C20.215 25.7638 20.2728 25.3793 20.2727 24.9926V13.5549L17.1755 17.6112C16.6597 18.2859 16.3803 19.1116 16.3803 19.9609C16.3803 20.8102 16.6597 21.6359 17.1755 22.3107L17.9979 23.3865L16.3854 24.9991H19.2371L20.1043 26.1397C19.8299 27.0286 19.2459 27.7897 18.4583 28.2848C17.6708 28.7799 16.7318 28.9763 15.8118 28.8383C14.8918 28.7003 14.0518 28.2371 13.4441 27.5326C12.8365 26.8282 12.5015 25.9293 12.5 24.9991V9.44426C12.5 8.41291 12.9097 7.4238 13.6389 6.69453Z" fill="#006FE6"/>
<path d="M55.7819 3.07641H53.6303L49.9524 6.98239H49.797V0H48V12.3057H49.797V9.03125L50.6892 8.13902L53.8283 12.3057H56.0338L52.0451 7.03753L55.7819 3.07641Z" fill="#253648"/>
<path d="M62.7093 3.36339C62.3526 3.13785 61.9583 2.97825 61.5452 2.89222C61.1594 2.81101 60.7664 2.76902 60.3722 2.76691C59.8328 2.76441 59.2961 2.84428 58.7808 3.00375C58.2871 3.1557 57.8319 3.41213 57.4462 3.75562C57.0441 4.12786 56.7424 4.5955 56.569 5.11526L58.2557 5.49871C58.4113 5.14505 58.6588 4.83955 58.9725 4.61401C59.3184 4.34751 59.7937 4.21426 60.3985 4.21426C60.9792 4.21426 61.4161 4.35837 61.7093 4.64659C62.0025 4.93481 62.1496 5.34082 62.1504 5.86462V5.90723C62.1581 5.99916 62.1404 6.09144 62.099 6.17391C62.0577 6.25639 61.9944 6.32584 61.9161 6.37464C61.6821 6.49412 61.4263 6.56489 61.1642 6.58266L59.8196 6.74181C59.3875 6.79287 58.9586 6.8686 58.5352 6.96862C58.1356 7.06125 57.7515 7.21108 57.3948 7.41348C57.0599 7.60434 56.7808 7.87954 56.5853 8.21172C56.3707 8.6048 56.2668 9.0487 56.2845 9.49617C56.2663 10.0361 56.4094 10.5692 56.6956 11.0275C56.9708 11.4443 57.3589 11.7742 57.8146 11.9786C58.3128 12.2022 58.8539 12.3138 59.3998 12.3057C59.8461 12.3164 60.2903 12.2411 60.7081 12.0839C61.0386 11.9564 61.3418 11.7672 61.6015 11.5262C61.8128 11.3291 61.9895 11.0978 62.1241 10.842H62.1955V12.3057H63.9499V5.97991C63.9499 5.31158 63.8338 4.76438 63.6015 4.33832C63.3927 3.94216 63.0855 3.60641 62.7093 3.36339ZM62.1542 8.77187C62.1555 9.13215 62.0589 9.48604 61.8747 9.79567C61.6806 10.1219 61.4006 10.3885 61.0652 10.5663C60.6722 10.7721 60.233 10.8735 59.7895 10.8608C59.3469 10.879 58.9093 10.7605 58.5364 10.5212C58.3752 10.4104 58.2453 10.26 58.159 10.0844C58.0728 9.90883 58.0331 9.71403 58.0439 9.51873C58.0291 9.23966 58.1184 8.96502 58.2946 8.74806C58.4805 8.54269 58.7161 8.38863 58.9788 8.30069C59.2865 8.19149 59.6056 8.11709 59.9299 8.07889L60.4825 8.0037C60.7018 7.97363 60.9286 7.93979 61.1604 7.90095C61.3699 7.86816 61.5771 7.82213 61.7807 7.76311C61.9158 7.73321 62.0423 7.67277 62.1504 7.58642L62.1542 8.77187Z" fill="#253648"/>
<path d="M77.4334 3.36339C77.0767 3.13785 76.6824 2.97825 76.2693 2.89222C75.8835 2.81101 75.4906 2.76902 75.0964 2.76691C74.5569 2.76441 74.0202 2.84428 73.5049 3.00375C73.0112 3.1557 72.5561 3.41213 72.1703 3.75562C71.7682 4.12786 71.4665 4.5955 71.2931 5.11526L72.9798 5.49871C73.1354 5.14505 73.3829 4.83955 73.6966 4.61401C74.0425 4.34751 74.5178 4.21426 75.1227 4.21426C75.7024 4.21426 76.1394 4.35837 76.4334 4.64659C76.7275 4.93481 76.8745 5.34082 76.8745 5.86462V5.90723C76.8823 5.99916 76.8645 6.09144 76.8231 6.17391C76.7818 6.25639 76.7185 6.32584 76.6402 6.37464C76.4062 6.49412 76.1504 6.56489 75.8883 6.58266L74.5437 6.74181C74.1116 6.79287 73.6828 6.8686 73.2593 6.96862C72.8597 7.06125 72.4757 7.21108 72.1189 7.41348C71.7841 7.60434 71.505 7.87954 71.3094 8.21172C71.0949 8.6048 70.9909 9.0487 71.0087 9.49617C70.9905 10.0361 71.1335 10.5692 71.4197 11.0275C71.6949 11.4443 72.083 11.7742 72.5387 11.9786C73.0369 12.2022 73.578 12.3138 74.1239 12.3057C74.5702 12.3164 75.0144 12.2411 75.4322 12.0839C75.7627 11.9564 76.066 11.7672 76.3257 11.5262C76.537 11.3291 76.7136 11.0978 76.8482 10.842H76.9196V12.3057H78.674V5.97991C78.674 5.31158 78.5579 4.76438 78.3256 4.33832C78.1168 3.94216 77.8096 3.60641 77.4334 3.36339ZM76.8783 8.77187C76.8797 9.13215 76.7831 9.48604 76.5989 9.79567C76.4047 10.1219 76.1247 10.3885 75.7893 10.5663C75.3963 10.7721 74.9571 10.8735 74.5137 10.8608C74.071 10.879 73.6334 10.7605 73.2605 10.5212C73.0994 10.4104 72.9694 10.26 72.8832 10.0844C72.7969 9.90883 72.7573 9.71403 72.7681 9.51873C72.7532 9.23966 72.8425 8.96502 73.0187 8.74806C73.2046 8.54269 73.4402 8.38863 73.7029 8.30069C74.0107 8.19149 74.3297 8.11709 74.654 8.07889L75.2066 8.0037C75.4259 7.97363 75.6527 7.93979 75.8846 7.90095C76.094 7.86816 76.3012 7.82213 76.5049 7.76311C76.64 7.73321 76.7664 7.67277 76.8745 7.58642L76.8783 8.77187Z" fill="#253648"/>
<path d="M69.5914 10.7994C69.4673 10.8208 69.3414 10.8308 69.2155 10.8295C69.0305 10.8318 68.8466 10.8004 68.6729 10.7368C68.5002 10.6698 68.3565 10.5443 68.2669 10.3822C68.1479 10.1395 68.0944 9.86994 68.1115 9.60021V4.52883H70.0012V3.08774H68.109V0.877237H66.3145V3.08524H64.9636V4.52632H66.3145V9.96863C66.2947 10.4586 66.426 10.9429 66.6904 11.3558C66.9345 11.7178 67.2784 12.0012 67.6804 12.1716C68.0969 12.3496 68.5471 12.4351 68.9999 12.4222C69.2418 12.4234 69.4832 12.4003 69.7205 12.3533C69.8716 12.3223 70.0203 12.2804 70.1653 12.228L69.8408 10.7456L69.5914 10.7994Z" fill="#253648"/>
<path d="M82.8151 16H85.6915V11.1471H85.7504C86.1151 11.9824 86.9268 12.7412 88.2915 12.7412C90.2915 12.7412 91.9033 11.1765 91.9033 8.1C91.9033 4.91177 90.1974 3.45882 88.3092 3.45882C86.8798 3.45882 86.0974 4.29412 85.7504 5.12353H85.6621V3.57647H82.8151V16ZM85.6327 8.09412C85.6327 6.61765 86.2445 5.70588 87.2974 5.70588C88.3621 5.70588 88.9504 6.64118 88.9504 8.09412C88.9504 9.55294 88.3621 10.5 87.2974 10.5C86.2445 10.5 85.6327 9.55882 85.6327 8.09412Z" fill="#253648"/>
<path d="M95.942 0.564706H93.0656V12.6118H95.942V0.564706Z" fill="#253648"/>
<path d="M99.9749 12.7647C101.234 12.7647 102.104 12.2765 102.598 11.3529H102.669V12.6118H105.375V6.47059C105.375 4.55882 103.675 3.45882 101.375 3.45882C98.9455 3.45882 97.569 4.68235 97.3396 6.32941L99.9925 6.42353C100.116 5.84706 100.593 5.49412 101.351 5.49412C102.057 5.49412 102.504 5.83529 102.504 6.44118V6.47059C102.504 7.02353 101.904 7.14118 100.363 7.27647C98.5337 7.42941 97.0043 8.10588 97.0043 10.1059C97.0043 11.8941 98.2455 12.7647 99.9749 12.7647ZM100.863 10.8824C100.198 10.8824 99.7278 10.5647 99.7278 9.96471C99.7278 9.38235 100.187 9.02941 101.004 8.90588C101.54 8.82941 102.198 8.71177 102.522 8.54118V9.4C102.522 10.2824 101.781 10.8824 100.863 10.8824Z" fill="#253648"/>
<path d="M111.889 3.57647H110.259V1.41177H107.383V3.57647H106.189V5.69412H107.383V10.0882C107.365 11.9176 108.553 12.8353 110.583 12.7412C111.277 12.7059 111.777 12.5647 112.053 12.4824L111.618 10.4059C111.494 10.4353 111.206 10.4941 110.989 10.4941C110.524 10.4941 110.259 10.3059 110.259 9.77059V5.69412H111.889V3.57647Z" fill="#253648"/>
<path d="M118.146 3.57647H116.423V3.07059C116.423 2.55294 116.635 2.23529 117.305 2.23529C117.576 2.23529 117.905 2.29412 118.117 2.35882L118.576 0.252942C118.235 0.158824 117.452 0 116.658 0C114.817 0 113.552 1.02353 113.552 3.11765V3.57647H112.335V5.69412H113.552V12.6118H116.423V5.69412H118.146V3.57647Z" fill="#253648"/>
<path d="M123.095 12.7824C125.937 12.7824 127.66 10.9059 127.66 8.12353C127.66 5.33529 125.937 3.45882 123.095 3.45882C120.254 3.45882 118.531 5.33529 118.531 8.12353C118.531 10.9059 120.254 12.7824 123.095 12.7824ZM123.113 10.6118C122.048 10.6118 121.46 9.6 121.46 8.10588C121.46 6.60588 122.048 5.58824 123.113 5.58824C124.143 5.58824 124.731 6.60588 124.731 8.10588C124.731 9.6 124.143 10.6118 123.113 10.6118Z" fill="#253648"/>
<path d="M128.789 12.6118H131.665V7.70588C131.665 6.62941 132.43 5.90588 133.459 5.90588C133.8 5.90588 134.312 5.96471 134.589 6.05882V3.55882C134.347 3.49412 134.047 3.45294 133.783 3.45294C132.794 3.45294 132.006 4.02941 131.677 5.22353H131.583V3.57647H128.789V12.6118Z" fill="#253648"/>
<path d="M135.416 12.6118H138.292V7.26471C138.292 6.37059 138.816 5.8 139.569 5.8C140.316 5.8 140.81 6.32353 140.81 7.15882V12.6118H143.574V7.21765C143.574 6.35294 144.051 5.8 144.845 5.8C145.574 5.8 146.092 6.28824 146.092 7.18824V12.6118H148.969V6.52941C148.969 4.61765 147.792 3.45882 146.086 3.45882C144.751 3.45882 143.698 4.15882 143.363 5.23529H143.268C143.027 4.15294 142.057 3.45882 140.804 3.45882C139.568 3.45882 138.627 4.13529 138.251 5.23529H138.151V3.57647H135.416V12.6118Z" fill="#253648"/>
<rect x="48.5" y="20.5" width="84" height="17" rx="7.5" fill="#F5F6F8"/>
<path d="M62.5682 32C64.3409 32 65.4148 30.9034 65.4148 29.0852C65.4148 27.2727 64.3409 26.1818 62.5852 26.1818H60.5057V32H62.5682ZM61.7358 30.946V27.2358H62.5199C63.6108 27.2358 64.1875 27.7926 64.1875 29.0852C64.1875 30.3835 63.6108 30.946 62.517 30.946H61.7358ZM68.2749 32.0852C69.5987 32.0852 70.4226 31.179 70.4226 29.8352C70.4226 28.483 69.5987 27.5795 68.2749 27.5795C66.951 27.5795 66.1271 28.483 66.1271 29.8352C66.1271 31.179 66.951 32.0852 68.2749 32.0852ZM68.2805 31.1477C67.6697 31.1477 67.3572 30.5881 67.3572 29.8267C67.3572 29.0653 67.6697 28.5028 68.2805 28.5028C68.88 28.5028 69.1925 29.0653 69.1925 29.8267C69.1925 30.5881 68.88 31.1477 68.2805 31.1477ZM73.1811 32.0852C74.343 32.0852 75.0732 31.4034 75.13 30.4006H73.9879C73.9169 30.8665 73.6101 31.1278 73.1953 31.1278C72.63 31.1278 72.2635 30.6534 72.2635 29.8182C72.2635 28.9943 72.6328 28.5227 73.1953 28.5227C73.6385 28.5227 73.9226 28.8153 73.9879 29.25H75.13C75.0788 28.2415 74.3146 27.5795 73.1754 27.5795C71.8516 27.5795 71.0334 28.4972 71.0334 29.8352C71.0334 31.1619 71.8374 32.0852 73.1811 32.0852ZM78.7031 30.142C78.706 30.7273 78.3054 31.0341 77.8707 31.0341C77.4134 31.0341 77.1179 30.7131 77.1151 30.1989V27.6364H75.9048V30.4148C75.9077 31.4347 76.5043 32.0568 77.3821 32.0568C78.0384 32.0568 78.5099 31.7188 78.706 31.2074H78.7514V32H79.9134V27.6364H78.7031V30.142ZM80.8814 32H82.0916V29.3807C82.0916 28.8977 82.3984 28.5767 82.8018 28.5767C83.1996 28.5767 83.4666 28.8494 83.4666 29.2784V32H84.6399V29.3352C84.6399 28.8835 84.8984 28.5767 85.3388 28.5767C85.7251 28.5767 86.0149 28.8182 86.0149 29.304V32H87.2223V29.0653C87.2223 28.1193 86.6598 27.5795 85.8473 27.5795C85.2081 27.5795 84.7109 27.9062 84.532 28.4062H84.4865C84.3473 27.9006 83.9013 27.5795 83.3018 27.5795C82.7138 27.5795 82.2678 27.892 82.0859 28.4062H82.0348V27.6364H80.8814V32ZM90.1669 32.0852C91.2464 32.0852 91.9737 31.5597 92.1442 30.75L91.0249 30.6761C90.9027 31.0085 90.5902 31.1818 90.1868 31.1818C89.5817 31.1818 89.1982 30.7812 89.1982 30.1307V30.1278H92.1697V29.7955C92.1697 28.3125 91.272 27.5795 90.1186 27.5795C88.8345 27.5795 88.0021 28.4915 88.0021 29.8381C88.0021 31.2216 88.8232 32.0852 90.1669 32.0852ZM89.1982 29.3778C89.2237 28.8807 89.6016 28.483 90.1385 28.483C90.6641 28.483 91.0277 28.858 91.0305 29.3778H89.1982ZM94.1697 29.4773C94.1726 28.9148 94.5078 28.5852 94.9964 28.5852C95.4822 28.5852 95.7749 28.9034 95.772 29.4375V32H96.9822V29.2216C96.9822 28.2045 96.3857 27.5795 95.4766 27.5795C94.8288 27.5795 94.3601 27.8977 94.1641 28.4062H94.1129V27.6364H92.9595V32H94.1697V29.4773ZM100.257 27.6364H99.4361V26.5909H98.2259V27.6364H97.6293V28.5455H98.2259V30.8182C98.2202 31.6733 98.8026 32.0966 99.6804 32.0597C99.9929 32.0483 100.214 31.9858 100.337 31.946L100.146 31.0455C100.087 31.0568 99.9588 31.0852 99.8452 31.0852C99.6037 31.0852 99.4361 30.9943 99.4361 30.6591V28.5455H100.257V27.6364ZM102.29 32.0824C102.935 32.0824 103.352 31.8011 103.565 31.3949H103.599V32H104.747V29.0568C104.747 28.017 103.866 27.5795 102.895 27.5795C101.849 27.5795 101.162 28.0795 100.994 28.875L102.114 28.9659C102.196 28.6761 102.455 28.4631 102.889 28.4631C103.301 28.4631 103.537 28.6705 103.537 29.0284V29.0455C103.537 29.3267 103.239 29.3636 102.48 29.4375C101.616 29.517 100.841 29.8068 100.841 30.7812C100.841 31.6449 101.457 32.0824 102.29 32.0824ZM102.636 31.2472C102.264 31.2472 101.997 31.0739 101.997 30.7415C101.997 30.4006 102.278 30.233 102.705 30.1733C102.969 30.1364 103.401 30.0739 103.545 29.9773V30.4403C103.545 30.8977 103.168 31.2472 102.636 31.2472ZM108.007 27.6364H107.186V26.5909H105.976V27.6364H105.379V28.5455H105.976V30.8182C105.97 31.6733 106.553 32.0966 107.43 32.0597C107.743 32.0483 107.964 31.9858 108.087 31.946L107.896 31.0455C107.837 31.0568 107.709 31.0852 107.595 31.0852C107.354 31.0852 107.186 30.9943 107.186 30.6591V28.5455H108.007V27.6364ZM108.795 32H110.006V27.6364H108.795V32ZM109.403 27.0739C109.764 27.0739 110.06 26.7983 110.06 26.4602C110.06 26.125 109.764 25.8494 109.403 25.8494C109.045 25.8494 108.75 26.125 108.75 26.4602C108.75 26.7983 109.045 27.0739 109.403 27.0739ZM112.947 32.0852C114.271 32.0852 115.094 31.179 115.094 29.8352C115.094 28.483 114.271 27.5795 112.947 27.5795C111.623 27.5795 110.799 28.483 110.799 29.8352C110.799 31.179 111.623 32.0852 112.947 32.0852ZM112.952 31.1477C112.342 31.1477 112.029 30.5881 112.029 29.8267C112.029 29.0653 112.342 28.5028 112.952 28.5028C113.552 28.5028 113.864 29.0653 113.864 29.8267C113.864 30.5881 113.552 31.1477 112.952 31.1477ZM117.092 29.4773C117.094 28.9148 117.43 28.5852 117.918 28.5852C118.404 28.5852 118.697 28.9034 118.694 29.4375V32H119.904V29.2216C119.904 28.2045 119.308 27.5795 118.398 27.5795C117.751 27.5795 117.282 27.8977 117.086 28.4062H117.035V27.6364H115.881V32H117.092V29.4773Z" fill="#313F4E"/>
<rect x="48.5" y="20.5" width="84" height="17" rx="7.5" stroke="#C6D0DB"/>
</svg>
